<?xml version="1.0" encoding="UTF-8"?>
<svg id="Capa_1" data-name="Capa 1" xmlns="http://www.w3.org/2000/svg" xmlns:xlink="http://www.w3.org/1999/xlink" viewBox="0 0 389.91 389.91">
  <defs>
    <style>
      .cls-1 {
        clip-path: url(#clippath-2);
      }

      .cls-2 {
        fill: #1c2919;
      }

      .cls-2, .cls-3, .cls-4, .cls-5 {
        stroke-width: 0px;
      }

      .cls-3, .cls-6 {
        fill: none;
      }

      .cls-4 {
        fill: #414c35;
      }

      .cls-7 {
        clip-path: url(#clippath-1);
      }

      .cls-8 {
        clip-path: url(#clippath);
      }

      .cls-9 {
        clip-path: url(#clippath-3);
      }

      .cls-5 {
        fill: #fff;
      }

      .cls-6 {
        stroke: #fffdfd;
        stroke-miterlimit: 10;
        stroke-width: .75px;
      }
    </style>
    <clipPath id="clippath">
      <rect class="cls-3" width="389.91" height="389.91"/>
    </clipPath>
    <clipPath id="clippath-1">
      <path class="cls-3" d="M194.95,0C87.28,0,0,87.28,0,194.96s87.28,194.95,194.95,194.95,194.96-87.28,194.96-194.95S302.63,0,194.95,0Z"/>
    </clipPath>
    <clipPath id="clippath-2">
      <rect class="cls-3" x="20.78" y="19.29" width="348.36" height="348.36"/>
    </clipPath>
    <clipPath id="clippath-3">
      <path class="cls-3" d="M194.95,19.29C98.76,19.29,20.78,97.27,20.78,193.47s77.98,174.18,174.18,174.18,174.18-77.98,174.18-174.18S291.15,19.29,194.95,19.29Z"/>
    </clipPath>
  </defs>
  <g class="cls-8">
    <g class="cls-7">
      <path class="cls-2" d="M0,0h389.91v389.91H0V0Z"/>
    </g>
  </g>
  <g class="cls-1">
    <g class="cls-9">
      <path class="cls-4" d="M20.78,19.29h348.36v348.36H20.78V19.29Z"/>
    </g>
  </g>
  <g>
    <path class="cls-5" d="M67.08,199.94l-1.41,8.72h-23.48v-41.54h4.71v41.07h9.94c2.56,0,4.63-.62,6.22-1.87,1.59-1.26,2.93-3.38,4.02-6.37Z"/>
    <path class="cls-5" d="M81.84,167.46c.82,0,1.53.3,2.1.9.57.59.88,1.24.92,1.95.15,1.96-.26,3.83-1.24,5.63-.98,1.78-2.17,3.45-3.59,5.02l-.48-.42c.58-.51,1.14-1.13,1.68-1.87.53-.75.96-1.49,1.3-2.23.33-.75.48-1.41.44-1.98s-.35-.93-.93-1.09c-.83-.11-1.56-.41-2.21-.9-.65-.5-.97-1.21-.97-2.16,0-.71.28-1.36.84-1.95.57-.6,1.29-.9,2.16-.9Z"/>
    <path class="cls-5" d="M125.26,208.66l-6.64-15.95c-2.52.23-4.59.74-6.22,1.53-1.63.79-2.95,1.75-3.95,2.86-.99,1.12-1.79,2.29-2.4,3.51-.61,1.21-1.15,2.34-1.62,3.4-.55,1.45-1.14,2.66-1.79,3.62-.65.97-1.64,1.43-2.98,1.39-.15-.05-.3-.1-.44-.13-.14-.04-.31-.13-.5-.29-1.62-.71-2.26-2.41-1.95-5.11.15-1.3.43-2.76.84-4.39.42-1.63.98-3.38,1.7-5.26,1.05-2.83,2.29-5.83,3.72-8.98,1.44-3.15,2.95-6.27,4.54-9.35,1.59-3.09,3.13-5.88,4.62-8.39h.42l17.59,41.54h-4.94ZM118.43,192.29l-8.64-20.12c-1.81,3.46-3.62,7.1-5.45,10.93-1.82,3.81-3.36,7.43-4.62,10.85-.7,1.88-1.26,3.63-1.68,5.25-.41,1.6-.69,3.03-.84,4.29-.04,1.21.06,2.24.29,3.09.24.84.71,1.37,1.41,1.6.2.04.35.09.44.13.1.04.23.1.38.17,1.18.08,2.06-.33,2.65-1.24.58-.9,1.12-2.02,1.6-3.36.47-1.09,1.02-2.26,1.64-3.49.62-1.24,1.45-2.43,2.5-3.57,1.04-1.14,2.38-2.12,4.02-2.94,1.65-.82,3.75-1.36,6.29-1.6Z"/>
    <path class="cls-5" d="M155.97,208.66v-41.12c-2.07,0-3.92.09-5.55.27-1.63.17-3.12.53-4.48,1.11-1.35.57-2.67,1.49-3.97,2.75v-4.6h32.54v4.6c-1.34-1.26-2.68-2.17-4.04-2.75-1.35-.57-2.83-.94-4.44-1.11-1.6-.18-3.44-.27-5.51-.27v41.12h-4.54Z"/>
    <path class="cls-5" d="M190.81,180.94v27.24h9.94c2.54,0,4.63-.62,6.26-1.87,1.63-1.26,2.98-3.38,4.04-6.37l-1.35,8.72h-23.42v-41.54h23.77v4.71c-1.37-1.34-2.71-2.31-4.01-2.92-1.29-.61-2.74-.99-4.37-1.14-1.63-.15-3.64-.23-6.05-.23h-4.81v9.52c0,2.67.44,4.71,1.34,6.12.9,1.41,2.26,2.37,4.06,2.86,1.8.49,4.06.72,6.77.72v4.65c-.87-.98-1.9-1.75-3.09-2.31-1.2-.57-2.41-1.16-3.64-1.77-1.24-.61-2.35-1.39-3.34-2.35-.98-.96-1.68-2.31-2.1-4.04Z"/>
    <path class="cls-5" d="M247.69,199.94l-1.41,8.72h-23.48v-41.54h4.71v41.07h9.94c2.56,0,4.63-.62,6.22-1.87,1.59-1.26,2.93-3.38,4.02-6.37Z"/>
    <path class="cls-5" d="M259.45,208.66v-41.54h4.41v41.54h-4.41Z"/>
    <path class="cls-5" d="M280.17,180.94v27.24h9.94c2.54,0,4.63-.62,6.26-1.87,1.63-1.26,2.98-3.38,4.04-6.37l-1.35,8.72h-23.42v-41.54h23.77v4.71c-1.37-1.34-2.71-2.31-4.01-2.92-1.29-.61-2.74-.99-4.37-1.14-1.63-.15-3.64-.23-6.05-.23h-4.81v9.52c0,2.67.44,4.71,1.34,6.12.9,1.41,2.26,2.37,4.06,2.86,1.8.49,4.06.72,6.77.72v4.65c-.87-.98-1.9-1.75-3.09-2.31-1.2-.57-2.41-1.16-3.64-1.77-1.24-.61-2.35-1.39-3.34-2.35-.98-.96-1.68-2.31-2.1-4.04Z"/>
    <path class="cls-5" d="M328.82,185.71c2.03.47,3.68,1.37,4.94,2.71s2.31,2.91,3.15,4.71c.85,1.79,1.66,3.61,2.44,5.45.75,1.69,1.51,3.28,2.29,4.75.79,1.46,1.67,2.64,2.65,3.53.99.88,2.13,1.32,3.41,1.32v.48c-3.05,0-5.47-.41-7.27-1.24-1.78-.82-3.12-1.91-4.02-3.26-.91-1.34-1.55-2.82-1.95-4.43-.4-1.61-.7-3.22-.92-4.83-.22-1.61-.53-3.09-.93-4.44-.41-1.36-1.1-2.45-2.06-3.28-.97-.82-2.39-1.24-4.27-1.24-2.98,0-5.37-1.41-7.17-4.23-1.02-1.65-1.78-3.67-2.29-6.07v33.02h-4.65v-41.6h10.36c2.9,0,5.54.32,7.92.95,2.37.62,4.28,1.61,5.7,2.96,1.44,1.35,2.16,3.14,2.16,5.38,0,1.92-.43,3.54-1.3,4.86-.87,1.31-2.02,2.33-3.45,3.05-1.43.72-3,1.21-4.73,1.45ZM333.64,176.35c0-2.24-.53-4-1.6-5.28-1.06-1.3-2.43-2.2-4.12-2.73-1.68-.53-3.48-.8-5.4-.8h-5.7v3.64c0,2.16.24,4.09.72,5.78.5,1.68,1.15,3.17,1.98,4.46.81,1.21,1.8,2.2,2.98,2.98,1.18.76,2.44,1.14,3.78,1.14h.42c1.88-.12,3.51-.92,4.88-2.37s2.06-3.72,2.06-6.83Z"/>
  </g>
  <line class="cls-6" x1="112.11" y1="40.94" x2="112.19" y2="148.97"/>
  <line class="cls-6" x1="112.84" y1="215.63" x2="112.91" y2="262.32"/>
  <line class="cls-6" x1="112.53" y1="276.87" x2="112.61" y2="345.53"/>
</svg>